<mxfile host="app.diagrams.net" modified="2023-11-23T07:36:35.129Z" agent="Mozilla/5.0 (X11; Linux x86_64) AppleWebKit/537.36 (KHTML, like Gecko) Chrome/96.0.4664.110 Safari/537.36 Edg/96.0.1054.62" version="22.1.3" etag="6wUeWgCvTADxsg8zvWsv" type="github">
  <diagram name="第 1 页" id="Dj8GlKMklHi3j_I1zaGo">
    <mxGraphModel>
      <root>
        <mxCell id="0" />
        <mxCell id="1" parent="0" />
      </root>
    </mxGraphModel>
  </diagram>
</mxfile>
